<?xml version="1.0" encoding="utf-8"?>
<!-- Generator: Adobe Illustrator 19.0.0, SVG Export Plug-In . SVG Version: 6.00 Build 0)  -->
<svg version="1.1" id="Layer_1" xmlns="http://www.w3.org/2000/svg" xmlns:xlink="http://www.w3.org/1999/xlink" x="0px" y="0px"
	 viewBox="0 0 960 560" style="enable-background:new 0 0 960 560;" xml:space="preserve">
<style type="text/css">
	.st0{fill:#010101;}
	.st1{fill:#020202;}
	.st2{fill:#0D0D0D;}
</style>
<path id="XMLID_90_" d="M800.5,404.2c-6.2-11.6-11.7-23.8-18.8-34.8c-10.2-15.8-13.3-32.4-12.7-51c1.1-34.5,0.2-69,0.3-103.5
	c0.1-37.7,26.1-70.2,62.8-77.3c31.4-6,57.9,4.1,77.6,29.1c19.5,24.8,22.8,52.7,9.1,81.2c-13.8,28.7-37.6,43.6-69.6,45.1
	c-5.8,0.3-11.6-0.4-17.4-1.3c-2.4-0.4-3.4-1.2-2.7-3.9c2.3-8.4,4.4-16.8,6.3-25.2c0.6-2.6,1.5-3,4.1-2.5
	c25.4,5.2,49.5-12.1,53.8-38.3c4.1-25.5-14.2-49.6-40.1-52.7c-25.6-3.1-49.3,15.9-51.5,41.2c-0.2,2.7-0.3,5.3-0.3,8
	c0,60.5,0,121,0,181.4c0,1.4,0,2.8,0,4.2C801.2,404.1,800.8,404.2,800.5,404.2z"/>
<path id="XMLID_89_" d="M740.6,180.8c0,14.5,1.4,29.1-0.3,43.4c-3.6,31.1-21.5,52.3-50.3,63.5c-28.4,11.1-54.8,5.3-78.1-13.7
	c-18.4-15.1-27.6-35.1-27.6-59c0-24.7,0.1-49.3-0.1-74c0-4.3,1.2-5.3,5.3-5.1c7.6,0.3,15.3,0.3,23,0c3.4-0.1,4.1,1,4.1,4.2
	c0.1,25.2,0.1,50.3,0.7,75.4c0.4,18.4,9.2,32.3,25.8,40.2c16.2,7.7,32.2,6.1,46.7-4.6c12.2-9.1,18.4-21.6,18.5-37
	c0.1-24.5,0.1-49-0.1-73.5c0-3.6,0.7-4.9,4.6-4.7c8.1,0.3,16.3,0.3,24.5,0c3.1-0.1,3.9,0.8,3.9,3.9c-0.2,13.7-0.1,27.3-0.1,41
	C740.9,180.8,740.7,180.8,740.6,180.8z"/>
<path id="XMLID_88_" d="M497.5,220.4c7.1-6.9,14.3-13.8,21.4-20.6c0.6-0.6,1.2-1.2,1.8-1.8c8.6-8.6,8.7-8.8-0.8-16.9
	c-17.2-14.7-36.7-19.7-58.1-11.2c-21.2,8.4-32.5,25.2-34.3,47.5c-1.7,21.9,6.6,40,25.8,51.7c35.1,21.4,80.7-2.4,83.7-43.4
	c0.2-2.8,0.7-4,3.9-4c13.4-0.1,13.4-0.3,10.9,13c-6.7,35.4-39.8,60.9-75.3,57.8c-37.6-3.2-65.7-32.9-66.2-70
	c-0.4-29.3,17.5-56.2,44.6-67.3c26.5-10.8,58.7-3.7,78.7,17.3c4.8,5.1,9.5,10.2,14.5,15.2c1.8,1.8,2.4,3,0.2,5.1
	c-9.2,8.9-18.2,18.1-27.3,27.2c-1,1-1.9,1.8-3.4,1.8c-6.4,0-12.8,0-19.2,0C498,221.3,497.7,220.9,497.5,220.4z"/>
<path id="XMLID_86_" d="M246.3,251.6c0-13.5-1.5-27.2,0.3-40.4c6.1-46.7,64-80.9,110.7-47.8c20.7,14.7,31.7,35,31.7,60.8
	c0,21.3-0.1,42.6,0.1,64c0,3.6-0.5,5.2-4.7,5.1c-10.3-0.3-10.3-0.1-10.3-10.4c0-20.3,0.2-40.6-0.1-61c-0.5-31-28.6-57.8-58.8-56.7
	c-29.5,1.1-54.5,27.5-54.8,58.2c-0.2,21.7-0.1,43.3,0,65c0,3.7-0.7,5.1-4.8,5c-9.6-0.3-9.6-0.1-9.6-9.6c0-10.7,0-21.3,0-32
	C246.1,251.6,246.2,251.6,246.3,251.6z"/>
<path id="XMLID_80_" class="st0" d="M405.2,376c-9.3,0-14-2.8-15.4-8.5c-0.2-1.1-2.1-3.1,0.7-3.4c1.5-0.1,3.4-1.2,4.6,1.3
	c2.8,5.5,9,7.3,14.1,4.4c1.7-0.9,2.8-2.2,2.8-4.3c0-2.2-1.2-3.4-3.1-3.9c-3.7-1.1-7.4-2-11-3c-4.3-1.2-7.8-3.4-7.7-8.5
	c0.1-5,2.7-8.4,7.4-10.1c7.7-2.8,16.1-0.1,18.4,6.1c0.4,1.1,2,3.1,0,3.7c-1.4,0.4-3.7,1.4-5.1-1.3c-2.4-4.4-7.4-5.7-11.8-3.7
	c-1.8,0.8-3,2.1-3.1,4.1c-0.1,2.3,1.4,3.3,3.2,3.9c3.3,1,6.7,1.7,10.1,2.7c6.5,1.9,8.8,4.4,8.8,9.2c-0.1,5.3-3.4,9.1-9.4,10.7
	C407.1,375.8,405.5,376,405.2,376z"/>
<path id="XMLID_79_" class="st0" d="M727.8,349.7c-2.7,0.3-4.9,1.2-6.6-2.6c-1.6-3.8-9.8-4.2-12.9-1.1c-2.4,2.5-1.7,5.7,2,6.9
	c3.9,1.3,8.1,2,12,3.3c7.1,2.4,9.2,9.4,4.4,15.1c-4.7,5.5-11,5.5-17.4,4.2c-5.8-1.2-8.7-5-9.1-11c3-0.5,5.2-1,6.8,3
	c1.8,4.6,11.6,5.1,14.9,1.3c2.1-2.4,1.6-5.6-1.6-6.8c-3.4-1.3-7-2-10.5-3c-6-1.6-8.6-4.3-8.6-8.8c0-5,3.4-8.9,9-10.4
	C718.9,337.2,727.9,341.7,727.8,349.7z"/>
<path id="XMLID_78_" class="st0" d="M645.7,351.6c-3.2,1-5.1,0.5-6.7-3.2c-2.5-5.6-11-5.6-14.3,0c-3.5,6-3.5,12.6-0.3,18.6
	c3.1,5.9,11.8,5.5,14.5-0.6c1.6-3.7,3.7-4,6.9-3.2c-1.6,8.3-5.8,12.5-12.7,12.7c-9,0.2-14.3-3.6-16.4-12c-3-12,2.7-22.7,13-24.5
	C638.8,338,644.4,342.2,645.7,351.6z"/>
<path id="XMLID_77_" class="st1" d="M573.8,359.5c0-3.3,0-6.6,0-10c0-2.5,0.6-5.2-3.5-4.6c-1.8,0.3-1.3-1.5-1.3-2.5
	c-0.1-1.1-0.3-2.6,1.6-2.4c4.3,0.6,3.2-2.5,3.3-4.8c0.2-6.3,2.9-9,8.7-8.7c1.3,0.1,2.8-0.3,2.9,1.8c0,1.5,0.4,3-2,3.2
	c-4.5,0.4-3.7,3.9-3.7,6.8c0,2.6,2,1.7,3.3,1.6c2-0.1,2.5,0.7,2.5,2.6c0,2-0.7,2.8-2.6,2.5c-3.3-0.6-3.3,1.4-3.2,3.8
	c0.1,7.5,0,15,0,22.4c0,2,0.3,3.8-2.9,3.9c-3.1,0.1-3.1-1.5-3-3.6C573.9,367.5,573.8,363.5,573.8,359.5z"/>
<path id="XMLID_76_" class="st1" d="M331.4,375.4c-5.6,0.1-7.3-1.5-7.5-7c-0.2-6.5-0.1-12.9-0.1-19.4c0-2.2,0.4-4.6-3.1-4
	c-1.3,0.2-1.8-0.6-1.6-1.8c0.1-1.1-0.5-3.1,0.7-3c5.7,0.5,4-3.7,3.9-6.3c-0.2-3.8,2-3.6,4.4-3.3c2.6,0.3,1.6,2.5,1.7,3.9
	c0.2,2.8-1,6.3,4.1,5.5c1.8-0.3,1.4,1.4,1.4,2.5c0.1,1.5-0.1,2.8-2,2.4c-3.5-0.6-3.6,1.4-3.5,4.1c0.1,5.8,0,11.6,0,17.4
	c0,1.9,0,3.9,2.6,4c1.9,0.1,3.2,0.3,3,2.7C335,376.2,332.7,375.1,331.4,375.4z"/>
<path id="XMLID_75_" class="st1" d="M298,345c2.4-2.6,4-4.7,6.7-5.5c1.4-0.5,3.2-1.2,4.1,0.1c0.7,1,0.4,2.9,0.4,4.3
	c-0.1,2.1-1.8,1.4-3,1.5c-5,0.7-7.9,3.8-8,9.1c-0.2,5.8-0.1,11.6,0,17.5c0.1,2.4-0.6,3.1-3.1,3.1c-2.4,0-3.1-0.7-3.1-3.1
	c0.1-9.1,0-18.3,0.1-27.4c0-1.7-1.6-4.4,2.4-4.7C298.4,339.6,297.8,342,298,345z"/>
<path id="XMLID_74_" class="st1" d="M506.6,345.3c2.7-2.6,4-4.8,6.5-5.6c1.6-0.6,3.5-1.5,4.6-0.3c0.8,0.8,0.5,2.8,0.5,4.3
	c0,2.5-2.1,1.5-3.4,1.7c-4.7,0.7-7.6,4.1-7.7,9.4c-0.1,5.7-0.1,11.3,0,17c0,2.1-0.2,3.3-2.9,3.3c-2.8,0-3.3-1-3.2-3.5
	c0.1-9,0-18,0.1-26.9c0-1.6-1.8-4.4,2.2-4.8C507.2,339.5,507.2,341.8,506.6,345.3z"/>
<path id="XMLID_73_" d="M597.6,357.2c0-4.7,0.1-9.3,0-14c0-2,0-3.4,2.8-3.4c2.4,0,3.1,0.7,3.1,3.1c-0.1,9.6-0.1,19.3,0,28.9
	c0,2.4-0.7,3.1-3.1,3.1c-2.8,0.1-2.8-1.3-2.8-3.4C597.6,366.9,597.6,362.1,597.6,357.2z"/>
<path id="XMLID_72_" class="st2" d="M552.8,326.6c-4.6,2.9-5.8,9.3-13.1,8.8C543.2,330.7,543.9,323.9,552.8,326.6z"/>
<path id="XMLID_71_" d="M600.4,327.1c2.8-0.6,3,1,3,3.1s-0.3,3.3-2.9,3.3c-2.7,0-2.9-1.3-2.9-3.4
	C597.5,327.9,597.8,326.4,600.4,327.1z"/>
<path d="M149.9,150.3c-41.4-0.7-71.3,34.2-71.3,71.7c0,37.2,29.2,70.9,68.5,71.1c40.9,0.2,75.3-32.4,74.7-71.5
	C221.1,181.6,190.9,149.6,149.9,150.3z M149.7,277.4c-31.2-0.2-56-24.5-55.8-54.6c0.1-31.3,26.3-57.4,57.4-57.1
	c30.1,0.2,55.2,26.3,55.1,57.1C206.3,252.6,180.4,277.6,149.7,277.4z"/>
<path d="M484.4,339.9c-3.3-0.5-3.9,1.1-3.5,4.2c-11.1-10.4-22.8-3.2-24.7,7.1c-0.5,2.8-0.4,5.7-0.3,8.5
	c0.4,11.3,10.8,22.2,24.5,12.8c0.1,4.7,0,9.4-5.1,11.4c-4.8,2-9.3,1.7-12.5-3.5c-1.1-1.8-3.6-1.3-5-0.6c-1.9,1-0.2,2.7,0.3,3.9
	c1,2.2,2.7,3.9,5,4.6c10.1,3.2,23.1,1.1,23.2-13.8c0.1-10.2,0.2-20.3,0.1-30.5C486.4,342.5,487.6,340.3,484.4,339.9z M474.1,370
	c-4.5,1.5-8.7-0.3-10.7-4.7c-1.3-2.7-1.7-5.6-1.6-7.7c0.1-10.1,3.6-14.3,10.7-13.6c0.7,0.1,1.4,0.1,1.9,0.4c6,2.9,6.2,8.5,6.3,14
	C480.8,364.5,478.3,368.6,474.1,370z"/>
<path class="st0" d="M558.4,371.2c-3.6-0.2-2.7-2.8-2.7-4.7c-0.1-4.5,0-9,0-13.5c0-11.1-5.9-15.7-17-13.7c-5,0.9-8.8,3.1-10.1,8.3
	c-0.2,1.1-1.3,2.9,0.5,3.2c1.6,0.3,3.7,1.3,5-1.6c2.3-5.2,8.3-6.9,13.2-4.1c2.1,1.3,2.9,3.1,2.6,5.5c-0.3,2.4-2.1,3.1-4.2,3.4
	c-3.9,0.5-7.9,0.8-11.7,1.8c-5.5,1.4-8.2,5.9-7.5,11.3c0.6,5,4.4,8.5,9.8,8.9c5.1,0.3,9.4-1.4,13.5-5.3c1.1,4.2,3.6,5.6,7.2,5.3
	c1.3-0.1,2.3-0.6,2.4-2C559.4,373,560.1,371.3,558.4,371.2z M539,371c-3.5,0.1-5.8-1.2-6.4-4.8c-0.6-3.8,1.5-5.6,4.8-6.3
	c3.4-0.7,6.8-1.2,10.2-1.9c2-0.4,2,0.7,2.1,2.2C550.3,366.4,545.8,371,539,371z"/>
<path class="st0" d="M277.6,371.6c-4-0.4-2.9-3.4-2.9-5.6c-0.1-5.4,0-10.7,0-16c0-2.6-0.4-5.1-2.3-6.9c-5.1-4.9-11.4-4.2-17.4-2.9
	c-5.1,1.2-7.5,5.1-7.8,10.3c4.7,0.7,4.7,0.7,5.8-1.3c2.5-4.7,8.2-6.6,12.9-4c2.3,1.2,3.3,3.2,2.9,5.8c-0.4,2.5-2.1,3-4.3,3.2
	c-3.6,0.4-7.3,0.9-10.8,1.7c-5.5,1.3-8.6,5.4-8.3,10.8c0.3,5.3,3.8,9,9.6,9.6c5.3,0.5,9.8-1.2,13.8-5.3c0.9,4.2,3.8,5.4,7.4,5
	c1.1-0.2,2-0.6,2.1-1.8C278.4,373.2,278.8,371.7,277.6,371.6z M257.2,371c-3.5-0.2-5.1-2-5.6-5.2c-0.4-3.2,1.3-5.2,4.2-5.8
	c4.2-0.9,8.4-1.5,12.7-2.3C269.5,366.8,265.5,371.4,257.2,371z"/>
<path class="st0" d="M688.7,371.7c-5-0.7-3-4.5-3.1-7c-0.3-5-0.1-10-0.1-15c0-4.2-1.6-7.5-5.7-9c-5.1-1.9-10.3-1.9-15.5,0.1
	c-3,1.1-4.9,3.4-5.6,6.5c-0.2,1.1-2.1,3.1,0.6,3.5c1.5,0.2,3.5,1,4.7-1.4c2.6-5.1,7.8-6.8,12.7-4.4c2.4,1.2,3.5,3.1,3.2,5.7
	c-0.3,2.4-1.8,3.2-4.1,3.4c-3.8,0.3-7.6,0.8-11.3,1.7c-5.4,1.3-8.5,5.6-8.1,11c0.4,5.2,3.7,8.7,9.3,9.4c5.3,0.7,9.8-0.9,14.1-5.2
	c1,4.1,3.6,5.3,7,4.9c1.1-0.1,2-0.3,2.3-1.5C689.3,373.5,689.6,371.8,688.7,371.7z M668.1,371c-3.5-0.2-5.2-1.9-5.6-5.1
	c-0.4-3.2,1.3-5.2,4.2-5.9c4.2-0.9,8.5-1.5,12.7-2.3C680.5,366.7,676.5,371.4,668.1,371z"/>
<path d="M355.4,359.4c6.4,0.2,12.7,0,19,0c1.4,0,3.1,0.5,3.1-2c-0.2-11.8-6.8-20.9-19.6-17.8c-9.6,2.3-14.7,13.9-11.3,25.2
	c2.2,7.4,7.4,11.2,15.1,11.2c8.2,0,12.8-3.4,15.2-11.7c-3.2-0.7-5.4-0.5-7.1,2.7c-2,3.7-6,4.6-10.1,3.8c-4-0.8-6.3-3.3-7.3-7.3
	C351.6,360.7,351.9,359.3,355.4,359.4z M353.9,348.5c2.5-3.8,6.3-4.8,10.5-3.9c3.6,0.7,5.6,3.3,6.5,6.8c0.6,2.3,0.1,3.4-2.6,3.3
	c-2.2-0.2-4.5-0.1-6.9-0.1c-1.5,0-3,0.1-4.5,0c-1.6-0.1-3.7,0.9-4.6-0.7C351.3,352,352.9,350.1,353.9,348.5z"/>
</svg>
